PathFileType	4	(X/Y/Z)	8_coords_data.trc
DataRate	CameraRate	NumFrames	NumMarkers	Units	OrigDataRate	OrigDataStartFrame	OrigNumFrames
30.0	30.0	5	21	m	30.0	29	48
Frame#	Time	THUMB_TIP	THUMB_IP	THUMB_MCP	THUMB_CMC	INDEX_TIP	INDEX_DIP	INDEX_PIP	INDEX_MCP	MIDDLE_TIP	MIDDLE_DIP	MIDDLE_PIP	MIDDLE_MCP	RING_TIP	RING_DIP	RING_PIP	RING_MCP	PINKY_TIP	PINKY_DIP	PINKY_PIP	PINKY_MCP	WRIST
X1	Y1	Z1	X2	Y2	Z2	X3	Y3	Z3	X4	Y4	Z4	X5	Y5	Z5	X6	Y6	Z6	X7	Y7	Z7	X8	Y8	Z8	X9	Y9	Z9	X10	Y10	Z10	X11	Y11	Z11	X12	Y12	Z12	X13	Y13	Z13	X14	Y14	Z14	X15	Y15	Z15	X16	Y16	Z16	X17	Y17	Z17	X18	Y18	Z18	X19	Y19	Z19	X20	Y20	Z20	X21	Y21	Z21
27	0.9333333333333294	0.5659306349744032	-0.008832988492935012	-0.10611618444290588	0.5429993809310018	-0.009658963367826345	-0.10733082574923336	0.5124133844270033	-0.0065034891510635795	-0.10249762801639234	0.4804807138585422	-0.01438264068873818	-0.07236270605842965	0.5801037608454764	0.02221494539063018	-0.1371546305963402	0.5650029757340024	0.02502319436895084	-0.127558796776768	0.545257695595681	0.03204470779243551	-0.11367239715328609	0.512705752746565	0.03556088848244254	-0.08643926321495438	0.5096420313656704	-0.014088601451300087	-0.09084537698502232	0.5268643868844377	-0.010067758850279995	-0.094747081120782	0.5481196310656754	0.009872601460640507	-0.09482566525807745	0.5204811348529199	0.03193675399156504	-0.06752301664682364	0.5232451862337825	-0.023477192495224397	-0.08448392794865567	0.5383617537454456	-0.013702903158174573	-0.08545996822496116	0.5559193009414788	0.003062046890935033	-0.07990578373847496	0.5292900519291768	0.020720086060305065	-0.05513084511627431	0.6010878953157685	0.010760322949277312	-0.07237806401600172	0.585292115643355	0.009351448546828012	-0.06593536136426509	0.5655227335897469	0.008430705440981456	-0.058925669191885965	0.5311577635509468	0.003535220127147354	-0.04912941946179	0.4622830810018609	-0.023011742144276925	-0.051989820119430985
28	0.9666666666666625	0.5700063261795533	-0.006931165513182402	-0.10147369504453124	0.547095059804802	-0.00844848202166526	-0.10235211619539158	0.5162517825855283	-0.006690139222556346	-0.09855468535654088	0.48259359472172114	-0.01466053159280567	-0.07038574438977863	0.5877308127818264	0.024065596222588637	-0.12420564421907343	0.571384241866137	0.027259931037058815	-0.11709327159164423	0.5497061578116238	0.03441082367197812	-0.10656069169641835	0.5136788006978813	0.03614067635390772	-0.0839184028744443	0.5177104057618733	-0.015770348690185676	-0.08350224693413721	0.5341357278661206	-0.00893898974790941	-0.08689950005592673	0.552153317322444	0.013964324915391235	-0.08736231494032498	0.5191670953965835	0.03397089037932144	-0.06482802057827858	0.5295681220456847	-0.02187324909762356	-0.07652790604153614	0.543329071908508	-0.01023058440984359	-0.07681879750030085	0.5580636700141075	0.009160899739207418	-0.07161861094945765	0.5267429891058932	0.0244908640141972	-0.05115576713992398	0.6000943122754087	0.020205110163456497	-0.05816735971062542	0.5837341931101119	0.017918340024792867	-0.05368214140710814	0.5633330031653464	0.01587359501682528	-0.04916301696868064	0.5285015204162851	0.008557528933575864	-0.04332123320279402	0.4622830810018609	-0.023011742144276925	-0.051989820119430985
29	0.9999999999999956	0.573947670849056	-0.004425355440331402	-0.09622757285672923	0.5511007033615016	-0.006836663674054333	-0.09667664882426324	0.5201088794291674	-0.006806918149119601	-0.09379117407113496	0.48478039589726885	-0.015024131760793202	-0.06782454834123891	0.5947119675609063	0.02824730483016058	-0.10826292558339662	0.577344865820839	0.03130993430765261	-0.10413932547745175	0.5539500727322751	0.03784140735748465	-0.0976560123473767	0.514885854097701	0.036709801857865876	-0.08073435801148432	0.5268877715241341	-0.014726091037408962	-0.07265238097462395	0.5420058384230861	-0.005452539938164747	-0.07631916474906675	0.5559316275999977	0.02008779313625564	-0.07810054967318802	0.517603446150202	0.03609870147694205	-0.06164609003886157	0.5360048154763428	-0.01793163821285837	-0.06536662346420136	0.5480710000372728	-0.004538483355631229	-0.06554153233164556	0.5592534916369494	0.017340208431037007	-0.06148509222643761	0.5233333786388517	0.028533847859303463	-0.04668074311700843	0.5960636658884253	0.0317322408477716	-0.041840688609121046	0.5794563452696422	0.028167751632024784	-0.03972141550360497	0.558834766913759	0.024549937249226828	-0.0381485378212047	0.524336688611412	0.01410289414400745	-0.036873651629094784	0.4622830810018609	-0.023011742144276925	-0.051989820119430985
30	1.0333333333333288	0.5771980887533199	-0.0013018067180883275	-0.09103272947383773	0.5544892669216772	-0.004804104242243312	-0.09082458752465622	0.523510205278059	-0.006820266497812755	-0.08857673756522394	0.4867705566459296	-0.01546639968358221	-0.06480001366722643	0.5996437950914912	0.03498436363123514	-0.09057254157050271	0.5816994816923007	0.03724026580042228	-0.08961728137836183	0.5571548766945231	0.04225067933244031	-0.08750352766961367	0.516181877666428	0.03721629774455626	-0.07703909043336993	0.5368064300849589	-0.010642225108232095	-0.05833068935483843	0.5499787038318992	0.0008271925002468761	-0.0631206438491923	0.5584233789407279	0.028415632896653387	-0.06724071287777172	0.51579194974212	0.038198765691486725	-0.05813030793601742	0.5421439005898853	-0.011535011271650575	-0.051248219855800914	0.5520683064483582	0.0035036719000781646	-0.051834885703342326	0.558439032637889	0.0274964242002399	-0.04984952329785691	0.519099653641381	0.03252223229199369	-0.04198343486751355	0.5880659529883195	0.044521393357642935	-0.02467476454854861	0.5717681679365647	0.03931045337376937	-0.025152579252450846	0.5515961261386597	0.03371537142014802	-0.026763729970363637	0.518598152867298	0.019592111218809882	-0.030306431237449194	0.4622830810018609	-0.023011742144276925	-0.051989820119430985
31	1.0666666666666622	0.5792935239740351	0.0027532984808185113	-0.08628897719888146	0.5568571254195108	-0.0020996807348021562	-0.08526106055085159	0.5261033385443844	-0.006502127398591129	-0.08335238137094836	0.4883247401022899	-0.015884922398085366	-0.061566361593383634	0.6013882089232125	0.04396653148542151	-0.0725139532863524	0.5834246158896456	0.044806514723326085	-0.07465958920244403	0.5585264232646255	0.04746896266418732	-0.0768959272738462	0.5172321482331048	0.037782064264294646	-0.07307716530021113	0.5477340177866964	-0.002750389392485064	-0.04040033069681598	0.5575384031364883	0.010581781709926186	-0.047757452525956756	0.5582525626318522	0.038624279183596566	-0.05566427626589038	0.5136196625829553	0.040279573474739205	-0.05451878290715961	0.5483195934406719	-0.002196702781033455	-0.0341650339450848	0.5551574636161828	0.014366079083612204	-0.0361443743319374	0.5544370810577007	0.03921226078274587	-0.037670245539828895	0.5141135795016432	0.036266339485163335	-0.0374302372752186	0.5758933574830998	0.05741256987708676	-0.00828476572453346	0.560598753442336	0.05036210472564928	-0.011345162493682448	0.5416977344304096	0.04254960590635537	-0.01609156760801117	0.5115191341548584	0.024570512423795376	-0.024270059764507634	0.4622830810018609	-0.023011742144276925	-0.051989820119430985
